<?xml version="1.0" standalone="no"?>
<!DOCTYPE svg PUBLIC "-//W3C//DTD SVG 20010904//EN"
 "http://www.w3.org/TR/2001/REC-SVG-20010904/DTD/svg10.dtd">
<svg version="1.0" xmlns="http://www.w3.org/2000/svg"
 width="700.000000pt" height="700.000000pt" viewBox="0 0 700.000000 700.000000"
 preserveAspectRatio="xMidYMid meet">
<metadata>
Created by potrace 1.14, written by Peter Selinger 2001-2017
</metadata>
<g transform="translate(0.000000,700.000000) scale(0.100000,-0.100000)"
fill="#000000" stroke="none">
<path d="M1600 6448 c81 -304 454 -1713 831 -3130 l683 -2578 707 0 706 0 37
138 c20 75 394 1483 830 3127 l793 2990 -590 3 c-361 1 -593 -1 -597 -7 -3 -5
-268 -1034 -590 -2285 -321 -1252 -586 -2273 -589 -2271 -2 3 -268 1030 -591
2282 l-586 2278 -595 3 -596 2 147 -552z"/>
</g>
</svg>
